# xmcd
#
# Track frame offsets:
#	150
#	17810
#	37610
#	57567
#	78870
#	99865
#	121465
#	142582
#	164897
#	189545
#	214202
#	236952
#	260942
#	284040
#	307060
#
# Disc length: 4406 seconds
#
# Revision: 1
# Processed by: cddbd v1.5.1PL0 Copyright (c) Steve Scherf et al.
# Submitted via: CDex 1.50Beta5
#
DISCID=df11340f
DTITLE=北島三郎 - 北島三郎ツインパック Disc 2
DYEAR=2001
DGENRE=World
TTITLE0=愛の道
TTITLE1=夫婦絶唱
TTITLE2=まつり
TTITLE3=北の漁場
TTITLE4=川
TTITLE5=年輪
TTITLE6=あじさい情話
TTITLE7=北の大地
TTITLE8=おやじの背中
TTITLE9=男一代
TTITLE10=竹
TTITLE11=根っこ
TTITLE12=のぼり坂
TTITLE13=橋
TTITLE14=人生道
EXTD=
EXTT0=
EXTT1=
EXTT2=
EXTT3=
EXTT4=
EXTT5=
EXTT6=
EXTT7=
EXTT8=
EXTT9=
EXTT10=
EXTT11=
EXTT12=
EXTT13=
EXTT14=
PLAYORDER=
